HIERARCHY
ROOT hip
{
	OFFSET 0.000000 0.000000 0.000000 
	CHANNELS 6 Xposition Yposition Zposition Xrotation Zrotation Yrotation
	JOINT abdomen
	{
		OFFSET 0.000000 3.402643 0.000000 
		CHANNELS 3 Xrotation Zrotation Yrotation
		JOINT chest
		{
			OFFSET 0.000000 8.438565 -0.680529 
			CHANNELS 3 Xrotation Zrotation Yrotation
			JOINT neck
			{
				OFFSET 0.000000 10.207942 -0.272212 
				CHANNELS 3 Xrotation Zrotation Yrotation
				JOINT head
				{
					OFFSET 0.000000 3.130431 0.000000 
					CHANNELS 3 Xrotation Zrotation Yrotation
					End Site
					{
						OFFSET 0.000000 3.130435 0.000000 
					}
				}
			}
			JOINT lCollar
			{
				OFFSET 3.470700 6.669187 -0.816635 
				CHANNELS 3 Yrotation Zrotation Xrotation
				JOINT lShldr
				{
					OFFSET 3.198488 0.000000 0.000000 
					CHANNELS 3 Zrotation Yrotation Xrotation
					JOINT lForeArm
					{
						OFFSET 10.139888 0.000000 0.000000 
						CHANNELS 3 Yrotation Zrotation Xrotation
						JOINT lHand
						{
							OFFSET 8.370511 0.000000 0.000000 
							CHANNELS 3 Zrotation Yrotation Xrotation
							End Site
							{
								OFFSET 4.083176 0.000000 0.000000 
							}
						}
					}
				}
			}
			JOINT rCollar
			{
				OFFSET -3.470700 6.669187 -0.816635 
				CHANNELS 3 Yrotation Zrotation Xrotation
				JOINT rShldr
				{
					OFFSET -3.198488 0.000000 0.000000 
					CHANNELS 3 Zrotation Yrotation Xrotation
					JOINT rForeArm
					{
						OFFSET -10.139888 0.000000 0.000000 
						CHANNELS 3 Yrotation Zrotation Xrotation
						JOINT rHand
						{
							OFFSET -8.370511 0.000000 0.000000 
							CHANNELS 3 Zrotation Yrotation Xrotation
							End Site
							{
								OFFSET -4.083176 0.000000 0.000000 
							}
						}
					}
				}
			}
		}
	}
	JOINT lThigh
	{
		OFFSET 5.308129 -1.633274 1.361059 
		CHANNELS 3 Xrotation Zrotation Yrotation
		JOINT lShin
		{
			OFFSET -2.041588 -20.007561 0.000000 
			CHANNELS 3 Xrotation Zrotation Yrotation
			JOINT lFoot
			{
				OFFSET 0.000000 -19.190928 -1.224953 
				CHANNELS 3 Xrotation Yrotation Zrotation
				End Site
				{
					OFFSET 0.000000 -2.449906 4.627600 
				}
			}
		}
	}
	JOINT rThigh
	{
		OFFSET -5.308129 -1.633274 1.361059 
		CHANNELS 3 Xrotation Zrotation Yrotation
		JOINT rShin
		{
			OFFSET 2.041588 -20.007561 0.000000 
			CHANNELS 3 Xrotation Zrotation Yrotation
			JOINT rFoot
			{
				OFFSET 0.000000 -19.190928 -1.224953 
				CHANNELS 3 Xrotation Yrotation Zrotation
				End Site
				{
					OFFSET 0.000000 -2.449906 4.627600 
				}
			}
		}
	}
}
MOTION
Frames: 20
Frame Time: 0.033333
10.219925 39.104702 17.414656 -5.253906 -5.302734 1.883863 15.374802 -8.895908 -6.219275 4.716798 12.792969 6.711147 23.785645 -1.990574 -0.884098 -33.466801 5.292968 1.289063 2.000000 -2.000000 0.000000 -21.181641 4.511719 -75.361328 -13.919063 -2.455574 -23.126402 1.649248 -3.400840 -3.509154 -2.000000 2.000000 0.000000 34.384762 -7.578125 -87.802734 10.129986 1.345330 -0.983683 -1.668799 3.381294 -3.509732 -38.378613 34.667706 2.318986 102.378685 -16.749977 2.181318 -13.391802 1.930027 -3.850626 -43.006466 -37.039818 -2.630465 88.307533 21.844748 6.288229 0.856618 2.843710 -7.124417 
9.744050 36.883968 17.312685 -5.253907 -3.818359 2.734375 15.374802 -8.895908 -6.219275 6.044921 10.097656 6.123046 22.587252 -0.844042 -0.356264 -33.671875 5.097656 0.791016 2.000000 -2.000000 0.000000 -22.148439 2.353516 -75.810638 -13.990853 -2.459226 -22.989109 1.649248 -3.400840 -3.509154 -2.000000 2.000000 0.000000 38.740231 -6.621094 -88.085938 10.284389 1.363084 -1.286026 -1.668799 3.381294 -3.509732 -42.482590 34.026955 2.253304 108.643410 -15.275057 -1.622753 -12.961212 1.963866 -3.824225 -44.734531 -35.760185 -2.455586 101.774475 19.530708 9.748033 -5.134104 2.825380 -7.113859 
9.381480 34.278004 17.086081 -5.126953 -2.207031 2.616811 15.374802 -8.895908 -6.219275 8.173830 7.568360 6.397771 20.418913 -1.026610 -0.387905 -33.730473 5.673828 0.781250 2.000000 -2.000000 0.000000 -23.876953 -0.781250 -75.146614 -14.081328 -2.442477 -22.833200 1.649248 -3.400840 -3.509154 -2.000000 2.000000 0.000000 42.431641 -4.775391 -88.701988 10.164998 1.336150 -0.827527 -1.668799 3.381294 -3.509732 -46.021965 33.513050 2.207345 113.443764 -13.851397 -4.222472 -11.965522 1.922332 -3.838996 -47.200993 -33.716228 -2.321215 110.308540 16.425013 8.146228 -11.736847 2.790925 -7.112084 
9.120884 31.400110 16.757500 -4.755859 -0.625000 2.353516 15.374802 -8.895908 -6.219275 10.791015 5.410157 6.650391 17.396835 -2.302796 -0.728248 -33.671875 6.875000 1.416016 2.000000 -2.000000 0.000000 -25.810547 -5.078125 -73.271484 -14.143850 -2.436779 -22.706512 1.649248 -3.400840 -3.509154 -2.000000 2.000000 0.000000 45.312500 -2.226563 -88.535156 9.822113 1.298103 -0.017627 -1.668799 3.381294 -3.509732 -50.100903 32.905632 2.154611 118.404335 -11.889181 -4.956835 -12.473152 1.933036 -3.853119 -51.256489 -32.077995 -2.124098 117.020401 13.095491 3.654009 -19.694439 2.818507 -7.143839 
8.894278 28.363592 16.360941 -3.955078 0.576172 2.529297 15.374802 -8.895908 -6.219275 13.554691 3.955079 6.592471 14.217853 -3.102993 -0.794441 -34.726563 7.197265 1.591798 2.000000 -2.000000 0.000000 -26.826172 -10.595703 -70.224609 -14.170460 -2.434146 -22.648037 1.649248 -3.400840 -3.509154 -2.000000 2.000000 0.000000 46.835938 0.654297 -89.160156 9.281030 1.191725 1.766652 -1.668799 3.381294 -3.509732 -56.231251 32.474846 2.112893 124.820930 -8.843324 -4.304865 -14.593990 1.907805 -3.857277 -58.209160 -31.238075 -2.072379 124.096054 9.297301 -1.573829 -25.826944 2.829995 -7.151768 
8.701664 25.327068 15.975712 -3.173828 1.074219 3.125000 15.374802 -8.895908 -6.219275 16.582033 3.339844 6.025959 11.447987 -2.477808 -0.514134 -37.431644 6.074219 1.201172 2.000000 -2.000000 0.000000 -25.849611 -16.591799 -66.289063 -14.110623 -2.442477 -22.833202 1.649248 -3.400840 -3.509154 -2.000000 2.000000 0.000000 46.337887 3.935546 -92.343750 8.993291 1.024939 4.682473 -1.668799 3.381294 -3.509732 -64.793404 32.753159 2.146653 132.110901 -5.081001 -1.930072 -16.050297 1.892889 -3.837267 -67.545166 -30.994333 -2.037625 131.721497 5.495846 -6.439732 -27.664358 2.820645 -7.121251 
8.543039 22.596472 15.681122 -2.783203 1.025391 3.799003 15.374802 -8.895908 -6.219275 19.492189 3.251953 4.668523 9.655390 -1.542174 -0.270414 -40.498051 5.429687 1.357422 2.000000 -2.000000 0.000000 -22.558592 -22.109375 -61.663830 -13.955144 -2.462096 -23.273001 1.649248 -3.400840 -3.509154 -2.000000 2.000000 0.000000 44.130859 7.099609 -94.637466 9.721373 0.930133 5.909545 -1.668799 3.381294 -3.509732 -73.784691 33.591484 2.225320 138.890198 -2.083189 2.428541 -16.420816 1.920413 -3.842695 -76.457901 -31.129457 -2.060394 138.725006 2.751876 -10.497859 -27.437801 2.827971 -7.162547 
8.429737 20.692984 15.522498 -2.802734 0.810547 4.277344 15.374802 -8.895908 -6.219275 21.601563 3.193359 2.607966 8.944449 -0.850525 -0.137994 -42.822266 5.937500 2.119141 2.000000 -2.000000 0.000000 -17.714844 -26.796877 -56.195808 -13.927423 -2.472929 -23.517059 1.649248 -3.400840 -3.509154 -2.000000 2.000000 0.000000 41.289063 9.921875 -93.025658 11.513641 1.007724 4.162816 -1.668799 3.381294 -3.509732 -79.808846 34.381760 2.308706 143.499771 -1.100236 7.495595 -17.221682 1.928599 -3.845537 -81.781555 -31.491543 -2.069623 143.403549 1.843928 -13.079180 -27.936657 2.819210 -7.145094 
8.452396 20.126469 15.454517 -3.095703 0.468750 4.433587 15.374802 -8.895908 -6.219275 22.744141 3.300781 0.605469 9.169738 -0.395565 -0.068550 -44.042973 6.679819 3.076233 2.000000 -2.000000 0.000000 -12.890625 -31.503910 -49.731670 -14.150002 -2.461662 -23.262836 1.649248 -3.400840 -3.509154 -2.000000 2.000000 0.000000 38.095703 12.373047 -90.691269 13.243867 1.102183 2.279853 -1.668799 3.381294 -3.509732 -80.899788 34.731663 2.352384 144.809784 -1.647293 10.290801 -18.530954 1.903557 -3.854253 -82.203331 -31.961300 -2.133265 144.660858 2.242801 -13.266196 -28.923737 2.822030 -7.130091 
8.611022 21.010227 15.488509 -3.535156 -0.097656 4.277327 15.374802 -8.895908 -6.219275 22.988281 3.984375 -1.074219 9.657627 -0.701307 -0.130938 -44.023438 7.294921 4.179688 2.000000 -2.000000 0.000000 -9.121094 -36.455074 -42.456970 -14.410213 -2.439410 -22.764984 1.649248 -3.400840 -3.509154 -2.000000 2.000000 0.000000 34.121090 14.667970 -92.011719 13.897238 1.063632 2.756984 -1.668799 3.381294 -3.509732 -77.655968 34.623299 2.309055 142.716553 -2.550874 9.117457 -18.745882 1.932616 -3.825245 -78.680473 -32.304119 -2.162138 142.494354 2.823979 -10.497185 -28.493370 2.838579 -7.142429 
8.916938 23.038353 15.692453 -4.072266 -0.751953 3.915887 15.374802 -8.895908 -6.219275 22.294920 5.175782 -2.656250 10.337692 -1.870146 -0.349212 -42.880863 7.900391 5.839845 2.000000 -2.000000 0.000000 -6.816407 -41.347656 -34.472656 -14.622703 -2.408088 -22.287071 1.649248 -3.400840 -3.509154 -2.000000 2.000000 0.000000 28.984375 16.533203 -97.370270 13.547760 0.897408 5.486744 -1.668799 3.381294 -3.509732 -71.491409 34.481007 2.282406 137.952713 -3.449975 4.159020 -17.378693 1.916252 -3.818658 -72.576981 -32.528778 -2.178429 137.593567 3.488505 -5.405634 -26.472225 2.837677 -7.134452 
9.279508 25.700970 16.100344 -4.550781 -1.298828 3.310547 15.374802 -8.895908 -6.219275 20.332035 6.494141 -4.608271 11.743094 -3.569375 -0.743670 -41.025394 8.730468 8.408204 2.000000 -2.000000 0.000000 -7.011719 -45.693359 -25.624998 -14.863327 -2.385003 -21.779493 1.649248 -3.400840 -3.509154 -2.000000 2.000000 0.000000 22.802734 17.246092 -104.440460 12.940271 0.691034 8.977071 -1.668799 3.381294 -3.509732 -63.299900 34.843227 2.327292 131.549500 -5.113605 -3.099382 -15.199109 1.939578 -3.848579 -64.822060 -32.782055 -2.215758 130.917099 5.107388 0.249426 -23.991615 2.816027 -7.140196 
9.664738 28.578865 16.768831 -5.126954 -1.601563 2.353516 15.374802 -8.895908 -6.219275 17.216799 7.568360 -6.717463 13.945225 -5.133044 -1.286007 -38.251957 9.277344 11.708986 2.000000 -2.000000 0.000000 -11.230469 -49.433594 -15.300387 -15.163625 -2.362613 -21.291008 1.649248 -3.400840 -3.509154 -2.000000 2.000000 0.000000 15.683591 16.572264 -110.556641 12.629894 0.525818 11.608788 -1.668799 3.381294 -3.509732 -53.947182 36.117397 2.464114 124.423248 -8.032704 -11.587677 -12.219357 1.926909 -3.846461 -56.551579 -33.192665 -2.256986 123.463608 7.852839 5.111882 -20.845758 2.833873 -7.166664 
10.083959 31.388777 17.663925 -5.683593 -1.865234 0.976245 15.374802 -8.895908 -6.219275 13.339846 8.583984 -8.689950 16.717588 -6.156860 -1.851261 -34.345707 8.974609 15.341799 2.000000 -2.000000 0.000000 -20.351561 -52.421871 -2.800708 -15.585908 -2.315082 -20.686502 1.649248 -3.400840 -3.509154 -2.000000 2.000000 0.000000 7.783203 15.390624 -113.261711 13.523063 0.528450 11.256721 -1.668799 3.381294 -3.509732 -44.450535 38.161797 2.652095 117.202797 -11.840726 -21.510712 -8.356934 1.955154 -3.849923 -49.328278 -33.939812 -2.291148 115.967361 10.546187 9.954506 -15.750035 2.826226 -7.121914 
10.537171 34.040066 18.683651 -6.298828 -2.236328 -0.566406 15.374802 -8.895908 -6.219275 9.296876 9.921876 -10.418240 19.576897 -7.234389 -2.576232 -29.707029 8.046876 18.770901 2.000000 -2.000000 0.000000 -33.847656 -54.228516 11.679688 -16.192240 -2.274365 -19.817987 1.649248 -3.400840 -3.509154 -2.000000 2.000000 0.000000 -0.566406 14.472681 -110.251442 16.763582 0.784346 6.370281 -1.668799 3.381294 -3.509732 -35.190716 40.297607 2.878761 109.877075 -15.277264 -31.160252 -4.935470 1.887789 -3.872578 -43.747326 -35.212589 -2.416893 108.432251 12.060463 14.851920 -8.902341 2.845567 -7.153490 
11.035704 36.453419 19.771358 -7.031250 -2.597656 -2.236771 15.374802 -8.895908 -6.219275 5.605471 11.435548 -12.009783 22.125059 -8.816588 -3.569317 -25.566410 7.158203 21.914066 2.000000 -2.000000 0.000000 -49.277348 -53.916016 27.031250 -17.397604 -2.183522 -18.325207 1.649248 -3.400840 -3.509154 -2.000000 2.000000 0.000000 -8.554688 13.945313 -102.985924 23.419245 1.126268 -0.918306 -1.668799 3.381294 -3.509732 -25.992603 41.810856 3.031415 102.212265 -17.257942 -34.133518 -4.564319 1.872263 -3.880570 -39.380199 -36.997494 -2.584660 100.231712 12.265855 15.563610 -3.882848 2.819187 -7.139078 
11.545568 38.515530 20.870394 -7.744140 -2.626953 -4.219198 15.374802 -8.895908 -6.219275 2.412112 12.695313 -13.249807 24.312340 -10.839965 -4.869380 -22.822269 6.679688 24.912115 2.000000 -2.000000 0.000000 -62.656250 -51.542969 41.935715 -20.322630 -1.988182 -15.360732 1.649248 -3.400840 -3.509154 -2.000000 2.000000 0.000000 -15.351563 13.291016 -94.968460 34.472549 1.331674 -7.236364 -1.668799 3.381294 -3.509732 -16.748581 42.265709 3.068566 93.375977 -17.571470 -24.888493 -7.665537 1.890903 -3.860990 -35.857925 -39.216984 -2.822460 89.833527 11.582112 6.411222 -3.139780 2.845435 -7.129052 
12.066760 40.147091 21.901451 -8.457031 -2.412109 -6.641035 15.374802 -8.895908 -6.219275 0.097655 13.496094 -14.179688 25.662607 -12.917740 -6.139193 -21.259766 6.708984 28.222660 2.000000 -2.000000 0.000000 -71.093750 -48.603512 55.390625 -27.015606 -1.643473 -10.799862 1.649248 -3.400840 -3.509154 -2.000000 2.000000 0.000000 -20.380861 12.080079 -88.583984 49.772396 1.369143 -11.157083 -1.668799 3.381294 -3.509732 -7.157626 41.431561 2.974067 81.495850 -16.472692 -8.877311 -10.694305 1.936451 -3.859092 -32.108566 -41.336468 -3.054675 74.818207 11.237614 -11.237060 -5.348986 2.836416 -7.108811 
12.508641 41.302784 22.875858 -9.003906 -1.972656 -9.453125 15.374802 -8.895908 -6.219275 -1.494141 13.818359 -14.960937 26.219048 -15.132282 -7.336277 -20.429688 7.568359 31.757814 2.000000 -2.000000 0.000000 -75.146484 -46.308590 67.753906 -39.014641 -1.225565 -6.038982 1.649248 -3.400840 -3.509154 -2.000000 2.000000 0.000000 -23.603518 10.126954 -84.384766 68.306923 1.348715 -12.997016 -1.668799 3.381294 -3.509732 2.646629 39.076736 2.786919 65.306122 -13.481904 2.347554 -10.751770 1.958510 -3.891655 -26.658060 -42.593662 -3.189723 53.445099 11.707067 -29.417871 -8.230051 2.814806 -7.125642 
12.848550 42.005257 23.816271 -9.013672 -1.318359 -12.509990 15.374802 -8.895908 -6.219275 -3.134763 13.945313 -14.870693 26.927078 -17.977789 -8.926883 -20.429689 9.667968 34.462894 2.000000 -2.000000 0.000000 -77.675781 -44.755863 80.276329 -54.917137 -0.847238 -2.167112 1.649248 -3.400840 -3.509154 -2.000000 2.000000 0.000000 -25.644531 6.542969 -81.580917 87.531845 0.398763 3.558255 -1.668799 3.381294 -3.509732 11.521062 35.422401 2.386860 47.349251 -8.396989 3.794018 -9.373219 1.964755 -3.883934 -19.558353 -42.387592 -3.167210 27.784105 10.657887 -43.777416 -10.807658 2.826356 -7.138783 
